<?xml version="1.0" standalone="no"?>
<!DOCTYPE svg PUBLIC "-//W3C//DTD SVG 20010904//EN"
 "http://www.w3.org/TR/2001/REC-SVG-20010904/DTD/svg10.dtd">
<svg version="1.0" xmlns="http://www.w3.org/2000/svg"
 width="810.000000pt" height="607.000000pt" viewBox="0 0 810.000000 607.000000"
 preserveAspectRatio="xMidYMid meet">
<metadata>
Created by potrace 1.16, written by Peter Selinger 2001-2019
</metadata>
<g transform="translate(0.000000,607.000000) scale(0.100000,-0.100000)"
fill="#000000" stroke="none">
<path d="M6124 4343 c-6 -4 -16 -48 -24 -98 -22 -157 -71 -282 -142 -367 -42
-51 -142 -107 -229 -129 -43 -12 -48 -11 -80 13 -54 41 -109 65 -232 102 -140
43 -313 69 -416 64 -84 -4 -136 -24 -272 -105 -80 -47 -95 -68 -112 -148 -3
-11 -5 10 -6 47 -3 168 -33 209 -168 233 -167 29 -322 37 -529 26 -306 -16
-414 -42 -414 -101 0 -17 -7 -14 -57 21 l-58 41 -190 -5 c-157 -3 -212 -9
-320 -31 -266 -56 -725 -227 -740 -276 -4 -12 -22 -22 -53 -29 -92 -19 -102
-26 -102 -70 0 -39 0 -39 -64 -61 -87 -31 -92 -57 -56 -256 24 -131 24 -144 5
-144 -46 0 -47 -142 -1 -172 6 -4 26 -8 44 -8 21 0 32 -5 32 -14 0 -27 83
-291 110 -352 27 -60 28 -61 75 -67 26 -4 67 -7 90 -7 37 0 46 -5 70 -36 l28
-36 86 4 c114 6 170 30 204 89 14 24 28 60 33 79 7 35 7 34 34 -45 26 -79 27
-80 74 -98 65 -24 215 -38 304 -28 60 7 83 16 136 51 36 23 67 47 69 53 2 6
-16 70 -39 142 -56 173 -83 272 -76 279 3 3 83 6 179 6 l173 0 0 -265 0 -265
194 0 c227 0 203 -19 205 165 1 66 4 159 7 208 l7 87 51 0 c67 0 122 -32 163
-93 46 -69 55 -107 59 -242 l3 -120 68 -3 c37 -1 115 1 173 5 l105 8 9 62 9
62 51 -43 c55 -46 111 -66 243 -85 90 -14 294 -14 351 -1 43 10 44 10 87 -34
50 -50 117 -85 174 -93 39 -5 40 -5 50 33 15 54 14 74 -4 74 -25 0 -88 36
-115 65 l-25 26 40 34 c22 19 43 34 46 35 4 0 10 -16 13 -35 4 -19 22 -51 41
-71 39 -41 36 -41 229 -12 75 11 79 13 102 50 22 34 29 38 65 38 54 0 72 11
91 57 19 44 84 254 94 298 13 64 14 65 54 65 34 0 42 4 56 32 19 37 22 101 5
122 -6 7 -24 16 -40 19 l-28 6 -6 153 c-9 206 -9 208 -82 233 -37 13 -60 27
-65 40 -12 32 -30 42 -100 55 -36 6 -75 13 -87 16 -42 8 -27 38 30 58 103 36
178 79 221 127 73 81 145 234 186 393 26 102 27 166 3 166 -10 0 -34 3 -53 5
-19 3 -40 2 -46 -2z m101 -33 c0 -8 -11 -17 -25 -21 -24 -7 -24 -7 -2 -8 15
-1 22 -7 22 -22 0 -16 -4 -20 -17 -14 -15 5 -16 4 -5 -6 12 -13 17 -69 6 -69
-3 0 -15 5 -27 11 l-22 12 23 -25 c19 -21 21 -28 11 -56 -12 -35 -18 -38 -39
-19 -8 6 -6 2 5 -11 18 -22 18 -24 1 -59 -13 -27 -20 -33 -29 -24 -6 6 -16 11
-21 11 -6 0 -3 -5 7 -11 22 -13 22 -31 -4 -80 -19 -38 -21 -40 -34 -22 -8 10
-15 13 -15 7 0 -5 5 -15 11 -21 16 -16 -8 -54 -68 -110 -47 -44 -67 -52 -77
-30 -3 6 -4 3 -3 -8 2 -16 -15 -26 -88 -56 -105 -43 -112 -45 -118 -21 -4 14
-5 13 -6 -4 -1 -27 -70 -62 -82 -42 -6 9 -9 7 -9 -7 0 -28 -59 -68 -77 -53
-11 8 -12 7 -7 -6 9 -24 -44 -80 -62 -65 -9 8 -11 5 -7 -9 3 -11 -6 -31 -23
-51 l-27 -33 -13 24 c-7 12 -13 19 -13 13 -1 -5 4 -17 9 -25 6 -10 4 -20 -7
-32 -20 -23 -32 -23 -50 0 -13 15 -13 15 -3 -6 18 -36 -17 -42 -47 -8 -25 29
-29 46 -12 46 27 0 117 74 149 122 77 119 121 149 295 208 64 22 136 51 160
64 104 61 188 212 222 401 9 50 21 93 27 97 8 5 7 8 -1 8 -7 0 -13 7 -13 16 0
12 10 14 53 12 37 -2 52 -7 52 -18z m-1862 -365 c129 -19 183 -39 201 -73 25
-48 29 -160 11 -298 -20 -161 -28 -193 -71 -274 -35 -67 -62 -101 -109 -138
l-26 -21 41 -41 c47 -47 54 -63 83 -185 17 -74 20 -125 21 -285 1 -107 -2
-203 -6 -212 -7 -16 -24 -18 -160 -18 l-153 0 0 118 c-1 110 -2 121 -31 183
-55 116 -125 164 -229 157 l-50 -3 -6 -150 c-4 -82 -7 -187 -8 -232 l-1 -83
-180 0 -180 0 0 353 c0 195 3 537 7 761 l6 406 51 15 c80 23 202 32 454 34
161 1 264 -4 335 -14z m-1008 -137 c0 -62 3 -133 8 -158 l7 -45 -144 -18
c-165 -20 -291 -49 -319 -75 -18 -16 -19 -26 -13 -177 10 -238 48 -482 98
-629 22 -67 56 -157 74 -201 19 -44 34 -85 34 -91 0 -30 -235 -23 -346 10
l-51 16 -26 87 c-66 218 -125 521 -150 768 l-13 130 -59 -1 c-33 -1 -98 -13
-146 -28 -117 -36 -123 -35 -150 21 -28 58 -35 135 -17 187 13 39 14 40 169
102 392 157 623 212 894 213 l150 1 0 -112z m98 63 l47 -34 0 -149 c0 -81 -2
-148 -5 -148 -16 0 -101 64 -107 81 -13 35 -21 182 -14 242 8 63 4 63 79 8z
m1722 24 c68 -7 253 -55 335 -86 55 -20 140 -69 140 -79 0 -3 -27 -18 -59 -33
-38 -18 -76 -45 -105 -79 -43 -47 -49 -50 -72 -39 -58 26 -151 5 -175 -41 -15
-29 -13 -112 5 -146 8 -15 42 -57 76 -94 34 -38 57 -68 52 -68 -5 0 -76 9
-157 20 -81 11 -178 20 -215 20 -64 0 -68 2 -104 38 -56 55 -88 125 -93 202
-4 55 0 78 26 150 40 108 87 186 129 212 32 19 113 38 142 33 8 -2 42 -6 75
-10z m-288 -58 c-41 -53 -93 -175 -109 -252 -19 -94 19 -219 84 -282 15 -15
28 -30 28 -34 0 -8 -128 -59 -147 -59 -20 0 -81 80 -98 129 -9 25 -19 80 -22
121 -6 81 11 240 30 280 9 18 48 43 137 87 68 34 126 61 128 59 2 -2 -12 -24
-31 -49z m849 -252 c9 -49 -2 -111 -31 -174 l-25 -54 -73 6 c-143 11 -166 50
-74 133 56 51 164 124 184 124 7 0 15 -16 19 -35z m-3621 -63 c0 -50 6 -78 23
-110 18 -34 22 -59 22 -127 0 -159 89 -511 175 -691 36 -74 117 -174 141 -174
8 0 14 -4 14 -9 0 -4 -36 -12 -81 -15 -70 -7 -83 -5 -101 11 -27 24 -159 295
-197 407 -69 197 -110 425 -114 636 l-2 114 40 12 c78 24 80 22 80 -54z m1328
26 c42 -27 46 -33 31 -39 -11 -3 -112 -21 -225 -39 l-207 -32 -61 27 c-33 15
-61 31 -61 36 0 21 293 74 429 78 34 1 56 -6 94 -31z m2454 15 c35 -5 44 -11
57 -37 37 -80 48 -339 21 -519 -29 -192 -107 -452 -161 -538 -20 -32 -29 -37
-76 -43 -29 -4 -68 -9 -86 -13 l-32 -5 39 73 c107 198 163 464 162 764 -1 110
-23 259 -47 319 -7 18 -4 19 37 12 24 -4 63 -10 86 -13z m-1274 -224 c9 -31
26 -67 37 -82 11 -14 20 -31 20 -39 0 -8 14 -27 30 -43 17 -16 30 -33 30 -38
0 -5 -23 -7 -52 -3 -29 3 -99 7 -155 8 -57 1 -103 3 -103 5 0 2 18 26 40 54
57 73 98 165 112 255 l13 79 6 -70 c3 -38 13 -95 22 -126z m-1127 -16 c-4 -93
-8 -169 -9 -169 -1 -1 -92 -5 -202 -9 l-201 -7 -16 138 c-9 76 -15 140 -13
143 2 2 62 12 132 22 70 10 162 25 203 33 127 23 114 41 106 -151z m-467 100
c3 -2 8 -46 26 -225 6 -55 5 -58 -19 -64 -30 -7 -41 -49 -33 -121 6 -56 35
-96 73 -103 24 -4 30 -12 41 -55 8 -28 36 -121 64 -208 28 -87 50 -159 48
-161 -27 -21 -101 -67 -104 -64 -7 7 -74 186 -104 278 -63 195 -96 391 -108
643 l-6 138 59 -28 c32 -15 61 -29 63 -30z m3025 43 c33 -14 35 -17 42 -83 25
-209 1 -422 -78 -675 -56 -183 -58 -185 -113 -190 -25 -2 -45 -3 -45 -3 0 1 9
27 21 59 32 93 88 311 106 415 18 107 21 352 6 439 -9 48 -8 52 9 52 10 0 34
-6 52 -14z m-4070 -98 c13 -199 60 -430 120 -590 14 -36 50 -118 80 -183 31
-65 56 -122 56 -128 0 -9 -51 -5 -124 9 -37 8 -68 76 -124 269 -102 352 -141
550 -134 665 2 21 11 29 45 42 74 29 73 30 81 -84z m3265 -139 l163 -22 39
-49 c21 -28 39 -54 39 -59 0 -18 -23 -8 -51 22 -16 17 -26 24 -23 15 6 -15 2
-16 -32 -10 -48 9 -71 12 -106 13 -19 1 -32 10 -43 29 -13 23 -15 23 -10 4 6
-22 5 -23 -47 -16 -29 3 -59 13 -65 22 -8 10 -13 11 -13 4 0 -21 -40 -13 -50
11 -7 17 -9 18 -9 5 -1 -13 -9 -18 -31 -18 -22 0 -30 5 -31 18 0 13 -2 13 -9
-5 -5 -12 -19 -24 -32 -28 -13 -3 -38 -14 -56 -23 -29 -15 -34 -15 -42 -2 -8
13 -10 12 -10 -2 0 -28 -35 -22 -75 13 -19 17 -35 35 -35 39 0 4 17 10 38 13
20 3 69 17 107 32 82 30 120 30 384 -6z m-201 -96 c90 -96 81 -220 -21 -287
l-42 -27 -33 36 c-27 29 -31 39 -21 51 6 8 20 14 30 14 27 0 59 57 59 104 0
48 -52 106 -96 107 -26 0 -25 2 16 19 62 26 68 25 108 -17z m202 -3 c85 -12
176 -31 201 -42 44 -18 48 -23 69 -86 49 -147 31 -277 -55 -398 -40 -56 -102
-114 -122 -114 -4 0 -39 36 -76 80 -38 43 -111 111 -163 151 -52 39 -94 74
-94 78 0 4 20 21 43 38 50 35 87 101 87 154 -1 41 -22 104 -44 128 -16 18 -22
46 -8 38 4 -3 77 -15 162 -27z m-1760 -100 l0 -90 -174 0 c-95 0 -194 -3 -219
-6 -41 -6 -47 -4 -62 19 -20 31 -30 95 -21 131 l6 25 143 4 c78 1 184 4 235 5
l92 2 0 -90z m1467 68 c12 -6 30 -27 39 -47 16 -33 16 -37 -2 -71 l-19 -35
-236 -3 -236 -2 -12 53 c-6 29 -20 67 -31 85 -11 18 -20 33 -20 35 0 8 499 -6
517 -15z m680 -24 c17 -23 13 -105 -7 -129 -7 -8 -24 -15 -39 -15 -25 0 -29 6
-54 83 -15 46 -27 85 -27 88 0 3 25 2 56 -1 39 -4 61 -12 71 -26z m-3103 4
c15 -75 27 -150 24 -153 -2 -2 -19 -6 -40 -10 -32 -6 -38 -4 -53 18 -9 14 -19
50 -22 79 -6 58 2 72 47 81 14 2 28 5 32 6 4 0 10 -9 12 -21z m2185 -168 c76
-1 84 -2 68 -15 -14 -10 -40 -12 -106 -8 -60 4 -90 2 -95 -6 -4 -6 -11 -64
-17 -128 -12 -156 -27 -208 -28 -101 -1 74 -16 213 -28 252 -5 18 -1 19 57 13
35 -4 102 -7 149 -7z m223 -66 c35 -37 97 -92 138 -124 91 -69 127 -105 237
-233 81 -93 142 -140 172 -129 9 3 11 -1 8 -14 -4 -11 -9 -32 -13 -47 -4 -19
-11 -26 -23 -23 -9 2 -29 7 -45 11 -25 5 -28 9 -23 38 l6 32 -13 -28 c-11 -24
-14 -26 -31 -13 -12 9 -16 19 -12 32 6 17 6 17 -6 2 -12 -15 -15 -15 -36 1
-18 14 -22 24 -17 42 6 18 5 20 -3 9 -16 -23 -54 16 -46 50 4 21 4 22 -6 7
-10 -17 -12 -16 -30 7 -11 14 -17 32 -13 43 5 14 4 15 -4 4 -8 -12 -15 -9 -36
15 -14 16 -26 34 -26 41 0 7 -6 10 -14 7 -7 -3 -26 10 -43 28 -16 18 -36 34
-44 36 -8 2 -22 12 -31 23 -9 11 -19 19 -21 17 -11 -7 -88 65 -83 77 3 8 -2
11 -12 9 -9 -2 -30 7 -46 21 -28 25 -28 26 -10 46 18 21 18 21 -9 8 -24 -11
-30 -11 -38 2 -13 21 -12 22 29 45 60 35 74 31 144 -42z m-251 -86 c9 -18 -26
-276 -40 -291 -4 -4 -25 8 -46 26 l-39 34 12 115 c7 63 12 139 12 169 l0 53
46 -44 c25 -25 50 -53 55 -62z m266 -95 c103 -77 253 -216 253 -234 0 -29
-214 -37 -371 -14 -147 21 -173 29 -165 52 4 9 13 64 22 122 23 163 16 149 82
154 31 2 58 4 59 5 2 1 56 -37 120 -85z"/>
<path d="M3939 3609 c-36 -85 -64 -157 -62 -161 2 -5 35 -8 73 -8 l70 0 -21
-52 c-12 -29 -36 -95 -55 -147 -52 -147 -43 -141 111 65 118 158 155 212 155
228 0 5 -27 6 -60 3 -33 -3 -60 -1 -60 4 0 4 24 50 54 101 30 51 51 97 46 101
-4 4 -47 11 -96 14 l-89 6 -66 -154z m218 123 c8 -5 -5 -36 -42 -102 -30 -52
-55 -101 -55 -109 0 -11 13 -12 67 -6 l67 7 -25 -33 c-14 -19 -65 -87 -113
-151 -47 -64 -91 -120 -96 -123 -10 -6 -3 15 44 138 40 103 38 107 -39 107
-36 0 -65 3 -65 8 0 4 22 59 49 122 27 63 51 123 54 133 5 14 18 17 74 17 37
0 73 -4 80 -8z"/>
</g>
</svg>
